<svg x="0" y="0" width="100%" height="100%" viewBox="0 0 1337 795" fill="none" xmlns="http://www.w3.org/2000/svg">
<path d="M0 357.802L55.7083 430.726C111.417 502.558 222.833 650.045 334.25 634.477C445.667 620.002 557.083 445.202 668.5 299.626C779.917 152.958 891.333 38.2453 1002.75 8.20157C1114.17 -21.8422 1225.58 38.2453 1281.29 66.3772L1337 95.6016V794.802H1281.29C1225.58 794.802 1114.17 794.802 1002.75 794.802C891.333 794.802 779.917 794.802 668.5 794.802C557.083 794.802 445.667 794.802 334.25 794.802C222.833 794.802 111.417 794.802 55.7083 794.802H0V357.802Z" fill="#0099FF"/>
</svg>
